#!OML:ASF I:\Actors\actors\Patient Classification 1\Patient 1\Session 1\Subject1.ASF
:FULLY-SPECIFIED
:DEGREES
238
root -0.524845 17.6216 8.2214 22.1443 -46.3232 -15.7391
lowerback 0.0828062 -2.80324 -1.91741
upperback -11.8589 -4.54197 -2.44124
thorax -12.9388 -2.29551 -1.05773
lowerneck -8.06287 10.8148 12.9812
upperneck 26.9767 11.3075 5.05488
head 10.5723 6.91524 1.00629
rclavicle 1.90833e-014 -7.63333e-014
rhumerus -26.405 -48.2998 20.9426
rradius 107.303
rwrist -49.2645
rhand 33.9569 -20.7434
rfingers 7.12502
rthumb 57.2249 -37.1406
lclavicle 1.90833e-014 -7.63333e-014
lhumerus -47.7682 10.8859 48.4055
lradius 37.9578
lwrist -11.867
lhand -19.3749 -20.7738
lfingers 7.12502
lthumb 6.94326 9.09233
rfemur -17.821 25.6539 24.1599
rtibia 7.02324
rfoot -1.28559 18.9223
rtoes 11.3199
lfemur 153.928 57.8059 141.722
ltibia 3.16445
lfoot 56.9592 -46.5799
ltoes 52.5023
239
root -0.548834 17.6231 8.23255 21.6871 -45.6852 -15.5475
lowerback 0.0140824 -2.4012 -1.53756
upperback -11.8965 -4.00711 -2.84334
thorax -12.9957 -2.10587 -1.76933
lowerneck -8.3112 10.4976 12.5684
upperneck 27.316 10.8245 5.30456
head 10.6795 6.695 1.11577
rclavicle 3.97569e-014 4.77083e-014
rhumerus -22.4963 -47.5633 20.4649
rradius 109.543
rwrist -47.6634
rhand 37.7536 -19.9285
rfingers 7.12502
rthumb 60.5083 -33.1639
lclavicle 3.97569e-014 4.77083e-014
lhumerus -49.6025 9.51625 49.5548
lradius 37.5813
lwrist -12.3381
lhand -19.3035 -21.0398
lfingers 7.12502
lthumb 7.01216 8.82401
rfemur -17.3492 25.6014 24.3435
rtibia 7.08484
rfoot -1.94531 18.506
rtoes 10.5201
lfemur 153.594 57.5635 141.652
ltibia 3.21105
lfoot 57.8528 -46.9681
ltoes 52.2398
240
root -0.572015 17.6262 8.2439 21.1212 -44.9473 -15.2867
lowerback 0.069151 -1.99162 -1.1669
upperback -11.9445 -3.46789 -3.2545
thorax -13.1284 -1.91396 -2.48517
lowerneck -8.59651 10.1629 11.9844
upperneck 27.7207 10.3057 5.69365
head 10.8002 6.45966 1.30003
rclavicle -2.06736e-014 0
rhumerus -18.3688 -46.5311 19.982
rradius 111.634
rwrist -46.0101
rhand 41.5351 -19.2761
rfingers 7.12502
rthumb 63.6549 -28.5446
lclavicle -2.06736e-014 0
lhumerus -51.3739 8.20856 50.6938
lradius 37.2414
lwrist -12.6819
lhand -19.1803 -21.224
lfingers 7.12502
lthumb 7.1311 8.63587
rfemur -16.8077 25.5802 24.5059
rtibia 7.15069
rfoot -2.64868 17.9426
rtoes 9.71391
lfemur 153.363 57.1705 141.698
ltibia 3.28364
lfoot 59.0963 -47.5177
ltoes 51.8725
241
root -0.593558 17.6304 8.25466 20.4815 -44.098 -14.9922
lowerback 0.204416 -1.5791 -0.768957
upperback -11.9654 -2.92193 -3.6761
thorax -13.2663 -1.72312 -3.2324
lowerneck -8.94732 9.82503 11.2637
upperneck 28.1506 9.77134 6.19463
head 10.9327 6.2181 1.54907
rclavicle -4.45278e-014 -5.725e-014
rhumerus -14.0796 -45.2098 19.4986
rradius 113.557
rwrist -44.25
rhand 45.1788 -18.8361
rfingers 7.12502
rthumb 66.5229 -23.2543
lclavicle -4.45278e-014 -5.725e-014
lhumerus -53.046 7.02367 51.7795
lradius 36.9818
lwrist -12.9079
lhand -19.0072 -21.2182
lfingers 7.12502
lthumb 7.29815 8.63595
rfemur -16.2144 25.5628 24.6752
rtibia 7.23209
rfoot -3.37052 17.2498
rtoes 8.93438
lfemur 153.236 56.6523 141.885
ltibia 3.37813
lfoot 60.6788 -48.198
ltoes 51.3949
242
root -0.612736 17.6356 8.26392 19.7967 -43.1171 -14.704
lowerback 0.420638 -1.17275 -0.31215
upperback -11.9367 -2.37509 -4.09788
thorax -13.3829 -1.53805 -4.01838
lowerneck -9.36289 9.4945 10.4746
upperneck 28.5437 9.25112 6.72704
head 11.0652 5.98029 1.82681
rclavicle -8.5875e-014 -3.49861e-014
rhumerus -9.67881 -43.6038 19.0247
rradius 115.265
rwrist -42.3291
rhand 48.6395 -18.6368
rfingers 7.12502
rthumb 69.0369 -17.2192
lclavicle -8.5875e-014 -3.49861e-014
lhumerus -54.6113 6.03944 52.7412
lradius 36.8298
lwrist -13.1476
lhand -18.7914 -21.0798
lfingers 7.12502
lthumb 7.50649 8.76705
rfemur -15.5735 25.5327 24.8894
rtibia 7.33454
rfoot -4.10704 16.4294
rtoes 8.13448
lfemur 153.215 56.0164 142.253
ltibia 3.49614
lfoot 62.6304 -48.976
ltoes 50.8185
243
root -0.629011 17.641 8.27023 19.1112 -42.0243 -14.4607
lowerback 0.705541 -0.762955 0.216462
upperback -11.862 -1.81145 -4.51443
thorax -13.472 -1.35171 -4.84797
lowerneck -9.82 9.16453 9.66905
upperneck 28.8816 8.74104 7.25287
head 11.1925 5.74474 2.10947
rclavicle 0 -5.725e-014
rhumerus -5.26324 -41.6955 18.6234
rradius 116.699
rwrist -40.2469
rhand 51.8781 -18.6537
rfingers 7.12502
rthumb 71.1297 -10.3996
lclavicle 0 -5.725e-014
lhumerus -56.0686 5.29182 53.5113
lradius 36.7973
lwrist -13.4627
lhand -18.5476 -20.9505
lfingers 7.12502
lthumb 7.74178 8.88781
rfemur -14.9289 25.4793 25.1675
rtibia 7.48802
rfoot -4.85683 15.5201
rtoes 7.29256
lfemur 153.321 55.2762 142.835
ltibia 3.63606
lfoot 64.9353 -49.809
ltoes 50.1692
244
root -0.643196 17.6475 8.27265 18.3776 -40.7892 -14.233
lowerback 1.09481 -0.356974 0.775007
upperback -11.7568 -1.24537 -4.92918
thorax -13.5728 -1.16739 -5.70189
lowerneck -10.157 8.77852 8.83882
upperneck 28.9331 8.21131 7.72294
head 11.1939 5.48505 2.35425
rclavicle -2.22639e-014 6.36111e-015
rhumerus -0.943567 -39.4431 18.3724
rradius 117.806
rwrist -38.0428
rhand 54.7527 -18.7587
rfingers 7.12502
rthumb 72.7011 -3.1198
lclavicle -2.22639e-014 6.36111e-015
lhumerus -57.4463 4.72835 54.0563
lradius 36.8805
lwrist -13.8025
lhand -18.3309 -20.8204
lfingers 7.12502
lthumb 7.95101 9.01007
rfemur -14.2425 25.4238 25.5032
rtibia 7.68388
rfoot -5.64934 14.459
rtoes 6.30527
lfemur 206.404 234.357 143.683
ltibia -3.80814
lfoot 67.7835 -129.24
ltoes 49.3995
